<svg xmlns="http://www.w3.org/2000/svg" xmlns:xlink="http://www.w3.org/1999/xlink" width="1800" zoomAndPan="magnify" viewBox="0 0 1350 679.499985" height="906" preserveAspectRatio="xMidYMid meet" version="1.0"><defs><g/><clipPath id="8b2a2910e0"><path d="M 460 33 L 877 33 L 877 450 L 460 450 Z M 460 33 " clip-rule="nonzero"/></clipPath><clipPath id="4f49d14d6c"><path d="M 426.835938 111.945312 L 538.628906 0.15625 L 923.007812 384.539062 L 811.21875 496.328125 Z M 426.835938 111.945312 " clip-rule="nonzero"/></clipPath><clipPath id="a56e3448ca"><path d="M 426.835938 111.945312 L 538.628906 0.15625 L 923.007812 384.539062 L 811.21875 496.328125 Z M 426.835938 111.945312 " clip-rule="nonzero"/></clipPath><clipPath id="52b538e913"><path d="M 473 33 L 890 33 L 890 450 L 473 450 Z M 473 33 " clip-rule="nonzero"/></clipPath><clipPath id="140568e398"><path d="M 811.210938 0 L 923 111.792969 L 538.621094 496.171875 L 426.828125 384.382812 Z M 811.210938 0 " clip-rule="nonzero"/></clipPath><clipPath id="c08713cdaa"><path d="M 923.15625 111.945312 L 811.367188 0.15625 L 426.984375 384.539062 L 538.773438 496.328125 Z M 923.15625 111.945312 " clip-rule="nonzero"/></clipPath></defs><g clip-path="url(#8b2a2910e0)"><g clip-path="url(#4f49d14d6c)"><g clip-path="url(#a56e3448ca)"><path fill="#ffffff" d="M 483.683594 55.824219 C 452.613281 86.269531 452.109375 136.199219 482.554688 167.265625 C 483.757812 168.496094 485.0625 169.523438 486.324219 170.660156 C 522.492188 151.191406 586.972656 88 598.898438 61.289062 C 597.660156 59.828125 596.492188 58.347656 595.125 56.953125 C 564.679688 25.882812 514.757812 25.378906 483.683594 55.824219 Z M 604.460938 68.550781 C 589.078125 105.496094 532.660156 152.214844 496.128906 178.203125 C 511.253906 187.988281 528.976562 192.097656 546.289062 190.460938 C 546.332031 190.429688 546.4375 190.492188 546.476562 190.460938 C 558.816406 181.644531 572.867188 169.710938 584.378906 158.402344 C 595.972656 147.019531 608.152344 133.523438 617.003906 121.066406 C 619.078125 102.992188 614.945312 84.3125 604.464844 68.550781 Z M 552.417969 196.589844 C 625.839844 260.957031 748.078125 371.472656 821.40625 435.410156 C 825.503906 439.589844 838.019531 434.03125 849.21875 423.058594 C 860.417969 412.082031 866.140625 399.898438 862.042969 395.714844 C 799.015625 321.140625 686.027344 201.589844 622.847656 127.105469 C 622.820312 127.140625 622.777344 127.160156 622.75 127.199219 L 622.84375 127.480469 C 619.433594 131.949219 615.753906 136.519531 611.910156 141.058594 C 611.855469 141.125 611.777344 141.179688 611.71875 141.246094 C 605.023438 149.085938 597.765625 156.871094 589.847656 164.628906 C 582.046875 172.273438 574.132812 179.300781 566.277344 185.75 C 566.238281 185.761719 566.21875 185.828125 566.179688 185.84375 C 561.550781 189.617188 557 193.226562 552.417969 196.589844 Z M 836.773438 438.140625 L 845.917969 446.910156 C 850.035156 450.890625 856.601562 450.792969 860.628906 446.722656 L 873.828125 433.332031 C 877.855469 429.261719 877.847656 422.890625 873.734375 418.910156 L 864.964844 410.515625 C 859.5 422.421875 848.8125 432.449219 836.773438 438.140625 Z M 836.773438 438.140625 " fill-opacity="1" fill-rule="nonzero"/></g></g></g><g clip-path="url(#52b538e913)"><g clip-path="url(#140568e398)"><g clip-path="url(#c08713cdaa)"><path fill="#ffffff" d="M 866.308594 55.824219 C 897.378906 86.269531 897.886719 136.199219 867.441406 167.265625 C 866.234375 168.496094 864.933594 169.523438 863.667969 170.660156 C 827.5 151.191406 763.023438 88 751.09375 61.289062 C 752.335938 59.828125 753.503906 58.347656 754.867188 56.953125 C 785.3125 25.882812 835.234375 25.378906 866.308594 55.824219 Z M 745.53125 68.550781 C 760.914062 105.496094 817.332031 152.214844 853.863281 178.203125 C 838.742188 187.988281 821.015625 192.097656 803.703125 190.460938 C 803.664062 190.429688 803.558594 190.492188 803.515625 190.460938 C 791.179688 181.644531 777.125 169.710938 765.613281 158.402344 C 754.023438 147.019531 741.839844 133.523438 732.992188 121.066406 C 730.914062 102.992188 735.046875 84.3125 745.53125 68.550781 Z M 797.578125 196.589844 C 724.15625 260.957031 601.914062 371.472656 528.589844 435.410156 C 524.488281 439.589844 511.976562 434.03125 500.773438 423.058594 C 489.574219 412.082031 483.855469 399.898438 487.953125 395.714844 C 550.976562 321.140625 663.964844 201.589844 727.148438 127.105469 C 727.171875 127.140625 727.21875 127.160156 727.242188 127.199219 L 727.148438 127.480469 C 730.5625 131.949219 734.238281 136.519531 738.085938 141.058594 C 738.140625 141.125 738.21875 141.179688 738.273438 141.246094 C 744.972656 149.085938 752.226562 156.871094 760.148438 164.628906 C 767.945312 172.273438 775.859375 179.300781 783.71875 185.75 C 783.757812 185.761719 783.773438 185.828125 783.8125 185.84375 C 788.441406 189.617188 792.992188 193.226562 797.578125 196.589844 Z M 513.21875 438.140625 L 504.074219 446.910156 C 499.957031 450.890625 493.394531 450.792969 489.367188 446.722656 L 476.167969 433.332031 C 472.136719 429.261719 472.144531 422.890625 476.261719 418.910156 L 485.027344 410.515625 C 490.496094 422.421875 501.183594 432.449219 513.21875 438.140625 Z M 513.21875 438.140625 " fill-opacity="1" fill-rule="nonzero"/></g></g></g><g fill="#ffffff" fill-opacity="1"><g transform="translate(15.202754, 609.244916)"><g><path d="M 92.523438 -5.949219 C 113.234375 -22.691406 78.207031 -69.171875 61.902344 -78.648438 C 74.019531 -85.695312 119.84375 -106.183594 106.84375 -127.554688 C 94.507812 -148.261719 41.417969 -93.847656 34.808594 -86.796875 C 38.332031 -99.355469 47.363281 -152.226562 17.625 -143.414062 C 4.847656 -139.667969 5.289062 -123.367188 5.289062 -112.792969 C 5.507812 -98.253906 5.289062 -83.492188 5.066406 -68.953125 C 4.847656 -55.515625 -4.625 -0.660156 22.03125 -6.167969 C 32.164062 -8.152344 35.027344 -21.367188 36.128906 -29.742188 C 36.789062 -35.46875 32.605469 -61.464844 35.246094 -63.003906 C 44.058594 -43.839844 60.363281 19.605469 92.523438 -5.949219 Z M 92.523438 -5.949219 "/></g></g></g><g fill="#ffffff" fill-opacity="1"><g transform="translate(127.514782, 609.244916)"><g><path d="M 70.273438 -0.21875 C 82.171875 2.203125 79.75 -16.523438 79.527344 -23.132812 L 78.207031 -64.546875 C 77.765625 -77.324219 74.242188 -81.730469 67.410156 -91.644531 C 51.769531 -114.113281 25.773438 -100.898438 13.660156 -81.949219 C 3.746094 -66.308594 -0.660156 -42.519531 7.929688 -25.113281 C 19.386719 -2.203125 48.023438 -11.015625 60.582031 -28.199219 C 60.800781 -21.148438 60.363281 -2.421875 70.273438 -0.21875 Z M 42.296875 -50.007812 C 35.6875 -50.226562 36.570312 -56.175781 38.113281 -60.800781 C 39.875 -65.429688 44.941406 -73.578125 49.566406 -75.34375 C 56.617188 -78.207031 58.820312 -71.597656 55.957031 -65.207031 C 54.414062 -61.242188 47.585938 -49.789062 42.296875 -50.007812 Z M 42.296875 -50.007812 "/></g></g></g><g fill="#ffffff" fill-opacity="1"><g transform="translate(210.757833, 609.244916)"><g><path d="M 12.335938 -7.710938 C 21.148438 7.269531 31.941406 -1.761719 34.144531 -15.199219 C 35.6875 -24.453125 35.6875 -34.144531 37.449219 -43.617188 C 38.992188 -51.992188 42.519531 -59.921875 46.921875 -67.410156 C 53.09375 -77.765625 61.464844 -87.238281 73.140625 -78.648438 C 77.984375 -75.121094 80.847656 -69.613281 87.679688 -69.835938 C 94.949219 -70.273438 98.03125 -76.882812 97.371094 -83.714844 C 95.828125 -96.269531 85.253906 -110.808594 72.699219 -113.894531 C 57.9375 -117.417969 46.703125 -105.742188 39.652344 -94.066406 C 38.113281 -102.660156 32.164062 -122.046875 19.605469 -116.757812 C 12.117188 -113.675781 9.691406 -100.675781 8.371094 -93.847656 C 3.304688 -68.070312 -1.320312 -31.28125 12.335938 -7.710938 Z M 12.335938 -7.710938 "/></g></g></g><g fill="#ffffff" fill-opacity="1"><g transform="translate(310.297097, 609.244916)"><g><path d="M 70.273438 -0.21875 C 82.171875 2.203125 79.75 -16.523438 79.527344 -23.132812 L 78.207031 -64.546875 C 77.765625 -77.324219 74.242188 -81.730469 67.410156 -91.644531 C 51.769531 -114.113281 25.773438 -100.898438 13.660156 -81.949219 C 3.746094 -66.308594 -0.660156 -42.519531 7.929688 -25.113281 C 19.386719 -2.203125 48.023438 -11.015625 60.582031 -28.199219 C 60.800781 -21.148438 60.363281 -2.421875 70.273438 -0.21875 Z M 42.296875 -50.007812 C 35.6875 -50.226562 36.570312 -56.175781 38.113281 -60.800781 C 39.875 -65.429688 44.941406 -73.578125 49.566406 -75.34375 C 56.617188 -78.207031 58.820312 -71.597656 55.957031 -65.207031 C 54.414062 -61.242188 47.585938 -49.789062 42.296875 -50.007812 Z M 42.296875 -50.007812 "/></g></g></g><g fill="#ffffff" fill-opacity="1"><g transform="translate(393.540147, 609.244916)"><g><path d="M 62.125 -7.929688 C 83.273438 -24.453125 85.476562 -58.597656 76.003906 -81.949219 C 74.679688 -109.269531 39.214844 -110.589844 22.46875 -96.710938 C 3.304688 -80.628906 -0.441406 -50.890625 6.386719 -27.976562 C 14.097656 -3.085938 40.09375 9.03125 62.125 -7.929688 Z M 53.753906 -37.671875 C 45.382812 -35.6875 46.703125 -45.160156 52.429688 -56.617188 C 53.753906 -59.480469 56.394531 -62.566406 59.039062 -64.769531 C 59.480469 -61.023438 60.363281 -39.214844 53.753906 -37.671875 Z M 53.753906 -37.671875 "/></g></g></g><g fill="#ffffff" fill-opacity="1"><g transform="translate(478.104492, 609.244916)"><g><path d="M 24.234375 4.847656 C 29.078125 1.542969 31.28125 -4.847656 32.824219 -10.355469 C 33.484375 -12.558594 35.246094 -29.300781 36.789062 -29.960938 C 40.535156 -21.589844 56.394531 3.964844 68.070312 0 C 85.695312 -5.949219 57.71875 -32.605469 53.3125 -37.671875 C 61.242188 -42.078125 81.511719 -56.175781 70.714844 -67.191406 C 61.242188 -76.882812 43.398438 -61.683594 36.789062 -55.734375 C 38.113281 -72.476562 39.875 -89.222656 40.316406 -105.964844 C 40.753906 -119.621094 44.71875 -135.042969 41.195312 -148.480469 C 38.113281 -160.816406 20.707031 -158.613281 16.300781 -148.039062 C 10.574219 -135.042969 10.132812 -117.640625 8.152344 -103.539062 C 4.1875 -73.140625 1.320312 -42.078125 4.847656 -11.675781 C 5.949219 -3.746094 6.609375 12.777344 24.234375 4.847656 Z M 24.234375 4.847656 "/></g></g></g><g fill="#ffffff" fill-opacity="1"><g transform="translate(555.181376, 609.244916)"><g><path d="M 25.554688 -105.523438 C 36.347656 -106.625 45.382812 -122.484375 53.753906 -128.65625 C 58.160156 -118.960938 72.257812 -93.847656 84.816406 -110.148438 C 94.066406 -122.484375 76.222656 -135.703125 68.734375 -143.632812 C 59.921875 -153.109375 54.855469 -156.851562 43.839844 -148.703125 C 34.585938 -141.652344 21.148438 -135.484375 13.878906 -126.453125 C 6.828125 -117.417969 13.660156 -104.421875 25.554688 -105.523438 Z M 29.519531 -9.914062 C 42.078125 -7.710938 56.617188 -11.457031 65.871094 -20.707031 C 73.578125 -28.417969 77.324219 -55.515625 58.820312 -47.585938 C 54.195312 -45.601562 30.402344 -21.367188 31.503906 -41.195312 C 32.164062 -52.652344 42.296875 -50.226562 50.226562 -51.769531 C 58.160156 -53.3125 67.191406 -55.734375 72.699219 -61.902344 C 84.59375 -75.34375 72.699219 -94.066406 57.9375 -98.472656 C 43.839844 -102.660156 27.539062 -96.710938 17.84375 -86.355469 C -1.542969 -65.871094 -5.289062 -16.082031 29.519531 -9.914062 Z M 44.058594 -65.648438 C 46.484375 -70.9375 51.550781 -73.359375 57.058594 -72.476562 C 59.039062 -67.851562 48.464844 -64.105469 44.058594 -65.648438 Z M 44.058594 -65.648438 "/></g></g></g><g fill="#ffffff" fill-opacity="1"><g transform="translate(636.001991, 609.244916)"><g/></g></g><g fill="#ffffff" fill-opacity="1"><g transform="translate(691.056927, 609.244916)"><g><path d="M 118.742188 -7.488281 C 137.246094 -25.773438 116.976562 -59.699219 106.183594 -76.003906 C 131.078125 -99.132812 136.804688 -135.484375 105.742188 -155.75 C 83.933594 -170.070312 16.523438 -182.1875 10.574219 -145.398438 C 7.269531 -125.789062 9.691406 -103.761719 8.371094 -83.492188 C 7.050781 -64.988281 -0.660156 -38.992188 5.949219 -20.929688 C 12.117188 -4.40625 30.839844 -0.21875 42.296875 -14.097656 C 48.023438 -21.148438 50.007812 -30.402344 51.992188 -38.992188 C 52.652344 -41.855469 52.429688 -49.566406 54.414062 -51.769531 C 56.835938 -54.414062 70.496094 -55.515625 74.019531 -56.617188 C 77.105469 -40.316406 89.441406 21.148438 118.742188 -7.488281 Z M 50.890625 -84.152344 C 50.007812 -92.964844 44.71875 -109.488281 47.363281 -117.640625 C 49.125 -123.585938 53.3125 -123.367188 59.921875 -123.585938 C 76.222656 -124.46875 94.289062 -109.707031 75.121094 -96.269531 C 67.632812 -90.984375 59.261719 -87.457031 50.890625 -84.152344 Z M 50.890625 -84.152344 "/></g></g></g><g fill="#ffffff" fill-opacity="1"><g transform="translate(821.206742, 609.244916)"><g><path d="M 29.519531 -9.914062 C 42.078125 -7.710938 56.617188 -11.457031 65.871094 -20.707031 C 73.578125 -28.417969 77.324219 -55.515625 58.820312 -47.585938 C 54.195312 -45.601562 30.402344 -21.367188 31.503906 -41.195312 C 32.164062 -52.652344 42.296875 -50.226562 50.226562 -51.769531 C 58.160156 -53.3125 67.191406 -55.734375 72.699219 -61.902344 C 84.59375 -75.34375 72.699219 -94.066406 57.9375 -98.472656 C 43.839844 -102.660156 27.539062 -96.710938 17.84375 -86.355469 C -1.542969 -65.871094 -5.289062 -16.082031 29.519531 -9.914062 Z M 44.058594 -65.648438 C 46.484375 -70.9375 51.550781 -73.359375 57.058594 -72.476562 C 59.039062 -67.851562 48.464844 -64.105469 44.058594 -65.648438 Z M 44.058594 -65.648438 "/></g></g></g><g fill="#ffffff" fill-opacity="1"><g transform="translate(902.027357, 609.244916)"><g><path d="M 63.003906 -2.203125 C 70.714844 -3.523438 81.511719 -5.726562 84.59375 -14.097656 C 87.679688 -21.808594 82.171875 -28.640625 74.902344 -30.621094 C 68.511719 -32.382812 48.464844 -27.539062 44.058594 -32.824219 C 41.636719 -36.128906 50.890625 -44.941406 52.871094 -47.804688 C 61.902344 -59.699219 80.847656 -76.664062 76.222656 -93.40625 C 71.375 -111.03125 47.585938 -111.25 33.265625 -108.828125 C 23.351562 -107.066406 -7.488281 -94.507812 12.996094 -81.511719 C 18.285156 -77.984375 30.621094 -83.050781 33.925781 -77.105469 C 37.671875 -70.496094 26.4375 -60.582031 22.691406 -56.175781 C 13.21875 -44.941406 -5.726562 -24.011719 8.371094 -9.253906 C 20.488281 3.304688 47.804688 0.21875 63.003906 -2.203125 Z M 63.003906 -2.203125 "/></g></g></g><g fill="#ffffff" fill-opacity="1"><g transform="translate(990.775863, 609.244916)"><g><path d="M 29.519531 -9.914062 C 42.078125 -7.710938 56.617188 -11.457031 65.871094 -20.707031 C 73.578125 -28.417969 77.324219 -55.515625 58.820312 -47.585938 C 54.195312 -45.601562 30.402344 -21.367188 31.503906 -41.195312 C 32.164062 -52.652344 42.296875 -50.226562 50.226562 -51.769531 C 58.160156 -53.3125 67.191406 -55.734375 72.699219 -61.902344 C 84.59375 -75.34375 72.699219 -94.066406 57.9375 -98.472656 C 43.839844 -102.660156 27.539062 -96.710938 17.84375 -86.355469 C -1.542969 -65.871094 -5.289062 -16.082031 29.519531 -9.914062 Z M 44.058594 -65.648438 C 46.484375 -70.9375 51.550781 -73.359375 57.058594 -72.476562 C 59.039062 -67.851562 48.464844 -64.105469 44.058594 -65.648438 Z M 44.058594 -65.648438 "/></g></g></g><g fill="#ffffff" fill-opacity="1"><g transform="translate(1071.596478, 609.244916)"><g><path d="M 85.476562 15.199219 C 96.710938 28.859375 103.101562 13.878906 103.101562 2.863281 C 103.101562 -19.386719 101.335938 -47.144531 91.644531 -67.851562 C 79.75 -93.1875 53.753906 -87.457031 36.347656 -70.496094 C 36.128906 -80.847656 32.605469 -111.691406 17.402344 -94.949219 C 7.269531 -83.933594 4.847656 -64.769531 3.964844 -50.449219 C 3.085938 -37.011719 1.761719 -15.863281 12.117188 -5.289062 C 26.4375 9.472656 33.042969 -11.894531 33.484375 -23.570312 C 33.484375 -31.722656 32.605469 -34.585938 38.992188 -40.535156 C 43.617188 -45.160156 49.125 -50.007812 55.957031 -50.667969 C 68.070312 -51.769531 69.835938 -40.09375 71.597656 -30.839844 C 74.242188 -16.742188 75.78125 3.746094 85.476562 15.199219 Z M 85.476562 15.199219 "/></g></g></g><g fill="#ffffff" fill-opacity="1"><g transform="translate(1177.962619, 609.244916)"><g><path d="M 64.328125 -0.441406 C 70.714844 -3.085938 70.496094 -12.558594 70.9375 -18.066406 C 73.140625 -36.128906 72.476562 -54.414062 72.257812 -72.476562 C 72.039062 -89.222656 72.039062 -105.964844 71.816406 -122.707031 C 71.816406 -132.621094 65.429688 -157.511719 50.449219 -143.855469 C 39.214844 -133.722656 48.023438 -111.03125 43.398438 -98.472656 C 40.535156 -91.203125 30.179688 -89.660156 24.011719 -83.714844 C 13.878906 -74.019531 5.949219 -60.800781 3.746094 -46.921875 C -0.441406 -20.488281 24.894531 10.792969 51.769531 -9.691406 C 53.09375 -4.40625 57.9375 1.984375 64.328125 -0.441406 Z M 32.605469 -40.535156 C 25.996094 -50.667969 33.925781 -66.53125 42.078125 -72.917969 C 42.296875 -64.546875 45.601562 -54.195312 44.28125 -46.261719 C 43.617188 -42.078125 37.230469 -33.707031 32.605469 -40.535156 Z M 32.605469 -40.535156 "/></g></g></g><g fill="#ffffff" fill-opacity="1"><g transform="translate(1253.71821, 609.244916)"><g><path d="M 29.519531 -9.914062 C 42.078125 -7.710938 56.617188 -11.457031 65.871094 -20.707031 C 73.578125 -28.417969 77.324219 -55.515625 58.820312 -47.585938 C 54.195312 -45.601562 30.402344 -21.367188 31.503906 -41.195312 C 32.164062 -52.652344 42.296875 -50.226562 50.226562 -51.769531 C 58.160156 -53.3125 67.191406 -55.734375 72.699219 -61.902344 C 84.59375 -75.34375 72.699219 -94.066406 57.9375 -98.472656 C 43.839844 -102.660156 27.539062 -96.710938 17.84375 -86.355469 C -1.542969 -65.871094 -5.289062 -16.082031 29.519531 -9.914062 Z M 44.058594 -65.648438 C 46.484375 -70.9375 51.550781 -73.359375 57.058594 -72.476562 C 59.039062 -67.851562 48.464844 -64.105469 44.058594 -65.648438 Z M 44.058594 -65.648438 "/></g></g></g></svg>