<svg xmlns="http://www.w3.org/2000/svg" xmlns:xlink="http://www.w3.org/1999/xlink" width="1000" zoomAndPan="magnify" viewBox="0 0 750 449.999984" height="600" preserveAspectRatio="xMidYMid meet" version="1.0"><defs><g/><clipPath id="5198eb9805"><path d="M 227 26 L 514 26 L 514 313 L 227 313 Z M 227 26 " clip-rule="nonzero"/></clipPath><clipPath id="30ad35c6c9"><path d="M 204.578125 80.160156 L 281.496094 3.246094 L 545.585938 267.339844 L 468.671875 344.253906 Z M 204.578125 80.160156 " clip-rule="nonzero"/></clipPath><clipPath id="5472d64099"><path d="M 204.578125 80.160156 L 281.496094 3.246094 L 545.585938 267.339844 L 468.671875 344.253906 Z M 204.578125 80.160156 " clip-rule="nonzero"/></clipPath><clipPath id="3e22cb4257"><path d="M 236 26 L 523 26 L 523 313 L 236 313 Z M 236 26 " clip-rule="nonzero"/></clipPath><clipPath id="9d9ea36a0b"><path d="M 468.539062 3.285156 L 545.453125 80.203125 L 281.359375 344.296875 L 204.445312 267.378906 Z M 468.539062 3.285156 " clip-rule="nonzero"/></clipPath><clipPath id="027fa4061e"><path d="M 545.410156 80.160156 L 468.496094 3.246094 L 204.402344 267.339844 L 281.316406 344.253906 Z M 545.410156 80.160156 " clip-rule="nonzero"/></clipPath></defs><g clip-path="url(#5198eb9805)"><g clip-path="url(#30ad35c6c9)"><g clip-path="url(#5472d64099)"><path fill="#ffffff" d="M 243.617188 41.621094 C 222.277344 62.527344 221.933594 96.816406 242.839844 118.148438 C 243.667969 118.992188 244.5625 119.699219 245.429688 120.480469 C 270.265625 107.109375 314.546875 63.714844 322.738281 45.375 C 321.886719 44.367188 321.082031 43.351562 320.144531 42.394531 C 299.238281 21.058594 264.953125 20.710938 243.617188 41.617188 Z M 326.554688 50.359375 C 315.992188 75.730469 277.25 107.8125 252.164062 125.660156 C 262.546875 132.378906 274.71875 135.203125 286.609375 134.078125 C 286.636719 134.058594 286.710938 134.097656 286.738281 134.078125 C 295.210938 128.023438 304.859375 119.828125 312.765625 112.066406 C 320.726562 104.246094 329.09375 94.976562 335.167969 86.425781 C 336.59375 74.011719 333.757812 61.183594 326.558594 50.359375 Z M 290.816406 138.289062 C 341.238281 182.488281 425.183594 258.382812 475.539062 302.289062 C 478.351562 305.164062 486.945312 301.34375 494.636719 293.808594 C 502.328125 286.273438 506.257812 277.90625 503.445312 275.03125 C 460.164062 223.820312 382.570312 141.722656 339.183594 90.570312 C 339.164062 90.59375 339.132812 90.609375 339.117188 90.632812 L 339.179688 90.828125 C 336.835938 93.898438 334.3125 97.035156 331.671875 100.152344 C 331.632812 100.199219 331.578125 100.234375 331.542969 100.28125 C 326.941406 105.664062 321.957031 111.011719 316.519531 116.339844 C 311.164062 121.585938 305.730469 126.414062 300.332031 130.84375 C 300.308594 130.851562 300.296875 130.898438 300.269531 130.90625 C 297.089844 133.5 293.964844 135.976562 290.816406 138.289062 Z M 486.089844 304.167969 L 492.371094 310.191406 C 495.199219 312.921875 499.707031 312.855469 502.472656 310.058594 L 511.535156 300.867188 C 514.304688 298.070312 514.300781 293.691406 511.472656 290.960938 L 505.449219 285.195312 C 501.699219 293.371094 494.359375 300.257812 486.089844 304.167969 Z M 486.089844 304.167969 " fill-opacity="1" fill-rule="nonzero"/></g></g></g><g clip-path="url(#3e22cb4257)"><g clip-path="url(#9d9ea36a0b)"><g clip-path="url(#027fa4061e)"><path fill="#ffffff" d="M 506.375 41.621094 C 527.710938 62.527344 528.058594 96.816406 507.152344 118.148438 C 506.324219 118.992188 505.429688 119.699219 504.5625 120.480469 C 479.722656 107.109375 435.445312 63.714844 427.253906 45.375 C 428.105469 44.367188 428.90625 43.351562 429.84375 42.394531 C 450.753906 21.058594 485.035156 20.710938 506.375 41.617188 Z M 423.433594 50.359375 C 433.996094 75.730469 472.742188 107.8125 497.828125 125.660156 C 487.441406 132.378906 475.269531 135.203125 463.382812 134.078125 C 463.355469 134.058594 463.28125 134.097656 463.253906 134.078125 C 454.78125 128.023438 445.128906 119.828125 437.222656 112.066406 C 429.265625 104.246094 420.898438 94.976562 414.820312 86.425781 C 413.394531 74.011719 416.234375 61.183594 423.433594 50.359375 Z M 459.175781 138.289062 C 408.753906 182.488281 324.808594 258.382812 274.453125 302.289062 C 271.636719 305.164062 263.042969 301.34375 255.351562 293.808594 C 247.660156 286.273438 243.730469 277.90625 246.546875 275.03125 C 289.828125 223.820312 367.417969 141.722656 410.808594 90.570312 C 410.824219 90.59375 410.855469 90.609375 410.875 90.632812 L 410.808594 90.828125 C 413.152344 93.898438 415.679688 97.035156 418.320312 100.152344 C 418.355469 100.199219 418.410156 100.234375 418.449219 100.28125 C 423.046875 105.664062 428.03125 111.011719 433.46875 116.339844 C 438.828125 121.585938 444.261719 126.414062 449.65625 130.84375 C 449.683594 130.851562 449.695312 130.898438 449.722656 130.90625 C 452.902344 133.5 456.027344 135.976562 459.175781 138.289062 Z M 263.898438 304.167969 L 257.617188 310.191406 C 254.789062 312.921875 250.28125 312.855469 247.519531 310.058594 L 238.453125 300.867188 C 235.6875 298.070312 235.691406 293.691406 238.519531 290.960938 L 244.539062 285.195312 C 248.292969 293.371094 255.632812 300.257812 263.898438 304.167969 Z M 263.898438 304.167969 " fill-opacity="1" fill-rule="nonzero"/></g></g></g><g fill="#ffffff" fill-opacity="1"><g transform="translate(52.568541, 435.580954)"><g><path d="M 96.078125 -6.175781 C 117.582031 -23.5625 81.207031 -71.828125 64.28125 -81.664062 C 76.863281 -88.984375 124.441406 -110.261719 110.945312 -132.449219 C 98.136719 -153.953125 43.007812 -97.449219 36.144531 -90.128906 C 39.804688 -103.167969 49.183594 -158.070312 18.300781 -148.917969 C 5.03125 -145.03125 5.488281 -128.101562 5.488281 -117.121094 C 5.71875 -102.023438 5.488281 -86.699219 5.261719 -71.601562 C 5.03125 -57.644531 -4.804688 -0.6875 22.875 -6.40625 C 33.398438 -8.464844 36.371094 -22.1875 37.515625 -30.882812 C 38.203125 -36.828125 33.855469 -63.824219 36.601562 -65.425781 C 45.75 -45.523438 62.679688 20.359375 96.078125 -6.175781 Z M 96.078125 -6.175781 "/></g></g></g><g fill="#ffffff" fill-opacity="1"><g transform="translate(169.191874, 435.580954)"><g><path d="M 72.972656 -0.230469 C 85.324219 2.289062 82.808594 -17.15625 82.582031 -24.019531 L 81.207031 -67.023438 C 80.75 -80.292969 77.089844 -84.867188 70 -95.160156 C 53.757812 -118.496094 26.765625 -104.769531 14.183594 -85.097656 C 3.890625 -68.855469 -0.6875 -44.148438 8.234375 -26.078125 C 20.128906 -2.289062 49.867188 -11.4375 62.90625 -29.28125 C 63.136719 -21.960938 62.679688 -2.515625 72.972656 -0.230469 Z M 43.921875 -51.925781 C 37.058594 -52.15625 37.972656 -58.332031 39.574219 -63.136719 C 41.40625 -67.941406 46.667969 -76.402344 51.46875 -78.234375 C 58.789062 -81.207031 61.078125 -74.34375 58.105469 -67.710938 C 56.503906 -63.59375 49.410156 -51.699219 43.921875 -51.925781 Z M 43.921875 -51.925781 "/></g></g></g><g fill="#ffffff" fill-opacity="1"><g transform="translate(255.630362, 435.580954)"><g><path d="M 12.808594 -8.007812 C 21.960938 7.550781 33.167969 -1.828125 35.457031 -15.785156 C 37.058594 -25.390625 37.058594 -35.457031 38.886719 -45.292969 C 40.488281 -53.984375 44.148438 -62.222656 48.726562 -70 C 55.128906 -80.75 63.824219 -90.585938 75.945312 -81.664062 C 80.980469 -78.003906 83.953125 -72.285156 91.042969 -72.515625 C 98.59375 -72.972656 101.796875 -79.835938 101.109375 -86.925781 C 99.507812 -99.964844 88.527344 -115.0625 75.488281 -118.265625 C 60.164062 -121.925781 48.496094 -109.800781 41.175781 -97.679688 C 39.574219 -106.601562 33.398438 -126.730469 20.359375 -121.238281 C 12.582031 -118.039062 10.066406 -104.542969 8.691406 -97.449219 C 3.429688 -70.683594 -1.371094 -32.484375 12.808594 -8.007812 Z M 12.808594 -8.007812 "/></g></g></g><g fill="#ffffff" fill-opacity="1"><g transform="translate(358.990625, 435.580954)"><g><path d="M 72.972656 -0.230469 C 85.324219 2.289062 82.808594 -17.15625 82.582031 -24.019531 L 81.207031 -67.023438 C 80.75 -80.292969 77.089844 -84.867188 70 -95.160156 C 53.757812 -118.496094 26.765625 -104.769531 14.183594 -85.097656 C 3.890625 -68.855469 -0.6875 -44.148438 8.234375 -26.078125 C 20.128906 -2.289062 49.867188 -11.4375 62.90625 -29.28125 C 63.136719 -21.960938 62.679688 -2.515625 72.972656 -0.230469 Z M 43.921875 -51.925781 C 37.058594 -52.15625 37.972656 -58.332031 39.574219 -63.136719 C 41.40625 -67.941406 46.667969 -76.402344 51.46875 -78.234375 C 58.789062 -81.207031 61.078125 -74.34375 58.105469 -67.710938 C 56.503906 -63.59375 49.410156 -51.699219 43.921875 -51.925781 Z M 43.921875 -51.925781 "/></g></g></g><g fill="#ffffff" fill-opacity="1"><g transform="translate(445.429113, 435.580954)"><g><path d="M 64.507812 -8.234375 C 86.46875 -25.390625 88.757812 -60.847656 78.921875 -85.097656 C 77.546875 -113.460938 40.71875 -114.835938 23.332031 -100.421875 C 3.429688 -83.722656 -0.457031 -52.84375 6.632812 -29.050781 C 14.640625 -3.203125 41.632812 9.378906 64.507812 -8.234375 Z M 55.816406 -39.117188 C 47.125 -37.058594 48.496094 -46.894531 54.445312 -58.789062 C 55.816406 -61.765625 58.5625 -64.964844 61.304688 -67.253906 C 61.765625 -63.363281 62.679688 -40.71875 55.816406 -39.117188 Z M 55.816406 -39.117188 "/></g></g></g><g fill="#ffffff" fill-opacity="1"><g transform="translate(533.239616, 435.580954)"><g><path d="M 25.164062 5.03125 C 30.195312 1.601562 32.484375 -5.03125 34.085938 -10.75 C 34.769531 -13.039062 36.601562 -30.425781 38.203125 -31.109375 C 42.089844 -22.417969 58.5625 4.117188 70.683594 0 C 88.984375 -6.175781 59.933594 -33.855469 55.359375 -39.117188 C 63.59375 -43.691406 84.640625 -58.332031 73.429688 -69.769531 C 63.59375 -79.835938 45.066406 -64.050781 38.203125 -57.875 C 39.574219 -75.261719 41.40625 -92.644531 41.863281 -110.03125 C 42.320312 -124.214844 46.4375 -140.226562 42.777344 -154.179688 C 39.574219 -166.992188 21.503906 -164.703125 16.929688 -153.722656 C 10.980469 -140.226562 10.523438 -122.15625 8.464844 -107.515625 C 4.347656 -75.945312 1.371094 -43.691406 5.03125 -12.125 C 6.175781 -3.890625 6.863281 13.269531 25.164062 5.03125 Z M 25.164062 5.03125 "/></g></g></g><g fill="#ffffff" fill-opacity="1"><g transform="translate(613.275239, 435.580954)"><g><path d="M 26.535156 -109.574219 C 37.746094 -110.71875 47.125 -127.1875 55.816406 -133.59375 C 60.390625 -123.527344 75.03125 -97.449219 88.070312 -114.378906 C 97.679688 -127.1875 79.148438 -140.914062 71.371094 -149.148438 C 62.222656 -158.984375 56.960938 -162.875 45.523438 -154.410156 C 35.914062 -147.089844 21.960938 -140.683594 14.410156 -131.304688 C 7.089844 -121.925781 14.183594 -108.429688 26.535156 -109.574219 Z M 30.652344 -10.292969 C 43.691406 -8.007812 58.789062 -11.894531 68.398438 -21.503906 C 76.402344 -29.507812 80.292969 -57.644531 61.078125 -49.410156 C 56.273438 -47.351562 31.566406 -22.1875 32.710938 -42.777344 C 33.398438 -54.671875 43.921875 -52.15625 52.15625 -53.757812 C 60.390625 -55.359375 69.769531 -57.875 75.488281 -64.28125 C 87.84375 -78.234375 75.488281 -97.679688 60.164062 -102.253906 C 45.523438 -106.601562 28.59375 -100.421875 18.527344 -89.671875 C -1.601562 -68.398438 -5.488281 -16.699219 30.652344 -10.292969 Z M 45.75 -68.167969 C 48.265625 -73.660156 53.527344 -76.175781 59.246094 -75.261719 C 61.304688 -70.457031 50.324219 -66.566406 45.75 -68.167969 Z M 45.75 -68.167969 "/></g></g></g></svg>